<?xml version="1.0" encoding="utf-8" standalone="no"?>
<!DOCTYPE svg PUBLIC "-//W3C//DTD SVG 1.1//EN"
  "http://www.w3.org/Graphics/SVG/1.1/DTD/svg11.dtd">
<svg height="223.881707pt" version="1.1" viewBox="0 0 440.10952 223.881707" width="440.10952pt" xmlns="http://www.w3.org/2000/svg" xmlns:xlink="http://www.w3.org/1999/xlink">
 <metadata>
  <rdf:RDF xmlns:cc="http://creativecommons.org/ns#" xmlns:dc="http://purl.org/dc/elements/1.1/" xmlns:rdf="http://www.w3.org/1999/02/22-rdf-syntax-ns#">
   <cc:Work>
    <dc:type rdf:resource="http://purl.org/dc/dcmitype/StillImage"/>
    <dc:date>2021-08-06T01:43:46.680411</dc:date>
    <dc:format>image/svg+xml</dc:format>
    <dc:creator>
     <cc:Agent>
      <dc:title>Matplotlib v3.4.2, https://matplotlib.org/</dc:title>
     </cc:Agent>
    </dc:creator>
   </cc:Work>
  </rdf:RDF>
 </metadata>
 <defs>
  <style type="text/css">*{stroke-linecap:butt;stroke-linejoin:round;}</style>
 </defs>
 <g id="figure_1">
  <g id="patch_1">
   <path d="M 0 223.881707 
L 440.10952 223.881707 
L 440.10952 0 
L 0 0 
z
" style="fill:none;"/>
  </g>
  <g id="axes_1">
   <g id="patch_2">
    <path d="M 64.71 180.518582 
L 421.45702 180.518582 
L 421.45702 9.08635 
L 64.71 9.08635 
z
" style="fill:#ffffff;"/>
   </g>
   <g id="matplotlib.axis_1">
    <g id="xtick_1">
     <g id="line2d_1">
      <defs>
       <path d="M 0 0 
L 0 3.5 
" id="m97bd48e763" style="stroke:#000000;stroke-width:0.8;"/>
      </defs>
      <g>
       <use style="stroke:#000000;stroke-width:0.8;" x="73.411147" xlink:href="#m97bd48e763" y="180.518582"/>
      </g>
     </g>
     <g id="text_1">
      <!-- 0 -->
      <g transform="translate(69.593647 196.636707)scale(0.12 -0.12)">
       <defs>
        <path d="M 2034 4250 
Q 1547 4250 1301 3770 
Q 1056 3291 1056 2328 
Q 1056 1369 1301 889 
Q 1547 409 2034 409 
Q 2525 409 2770 889 
Q 3016 1369 3016 2328 
Q 3016 3291 2770 3770 
Q 2525 4250 2034 4250 
z
M 2034 4750 
Q 2819 4750 3233 4129 
Q 3647 3509 3647 2328 
Q 3647 1150 3233 529 
Q 2819 -91 2034 -91 
Q 1250 -91 836 529 
Q 422 1150 422 2328 
Q 422 3509 836 4129 
Q 1250 4750 2034 4750 
z
" id="DejaVuSans-30" transform="scale(0.015625)"/>
       </defs>
       <use xlink:href="#DejaVuSans-30"/>
      </g>
     </g>
    </g>
    <g id="xtick_2">
     <g id="line2d_2">
      <g>
       <use style="stroke:#000000;stroke-width:0.8;" x="116.916881" xlink:href="#m97bd48e763" y="180.518582"/>
      </g>
     </g>
     <g id="text_2">
      <!-- 25 -->
      <g transform="translate(109.281881 196.636707)scale(0.12 -0.12)">
       <defs>
        <path d="M 1228 531 
L 3431 531 
L 3431 0 
L 469 0 
L 469 531 
Q 828 903 1448 1529 
Q 2069 2156 2228 2338 
Q 2531 2678 2651 2914 
Q 2772 3150 2772 3378 
Q 2772 3750 2511 3984 
Q 2250 4219 1831 4219 
Q 1534 4219 1204 4116 
Q 875 4013 500 3803 
L 500 4441 
Q 881 4594 1212 4672 
Q 1544 4750 1819 4750 
Q 2544 4750 2975 4387 
Q 3406 4025 3406 3419 
Q 3406 3131 3298 2873 
Q 3191 2616 2906 2266 
Q 2828 2175 2409 1742 
Q 1991 1309 1228 531 
z
" id="DejaVuSans-32" transform="scale(0.015625)"/>
        <path d="M 691 4666 
L 3169 4666 
L 3169 4134 
L 1269 4134 
L 1269 2991 
Q 1406 3038 1543 3061 
Q 1681 3084 1819 3084 
Q 2600 3084 3056 2656 
Q 3513 2228 3513 1497 
Q 3513 744 3044 326 
Q 2575 -91 1722 -91 
Q 1428 -91 1123 -41 
Q 819 9 494 109 
L 494 744 
Q 775 591 1075 516 
Q 1375 441 1709 441 
Q 2250 441 2565 725 
Q 2881 1009 2881 1497 
Q 2881 1984 2565 2268 
Q 2250 2553 1709 2553 
Q 1456 2553 1204 2497 
Q 953 2441 691 2322 
L 691 4666 
z
" id="DejaVuSans-35" transform="scale(0.015625)"/>
       </defs>
       <use xlink:href="#DejaVuSans-32"/>
       <use x="63.623047" xlink:href="#DejaVuSans-35"/>
      </g>
     </g>
    </g>
    <g id="xtick_3">
     <g id="line2d_3">
      <g>
       <use style="stroke:#000000;stroke-width:0.8;" x="160.422615" xlink:href="#m97bd48e763" y="180.518582"/>
      </g>
     </g>
     <g id="text_3">
      <!-- 50 -->
      <g transform="translate(152.787615 196.636707)scale(0.12 -0.12)">
       <use xlink:href="#DejaVuSans-35"/>
       <use x="63.623047" xlink:href="#DejaVuSans-30"/>
      </g>
     </g>
    </g>
    <g id="xtick_4">
     <g id="line2d_4">
      <g>
       <use style="stroke:#000000;stroke-width:0.8;" x="203.928349" xlink:href="#m97bd48e763" y="180.518582"/>
      </g>
     </g>
     <g id="text_4">
      <!-- 75 -->
      <g transform="translate(196.293349 196.636707)scale(0.12 -0.12)">
       <defs>
        <path d="M 525 4666 
L 3525 4666 
L 3525 4397 
L 1831 0 
L 1172 0 
L 2766 4134 
L 525 4134 
L 525 4666 
z
" id="DejaVuSans-37" transform="scale(0.015625)"/>
       </defs>
       <use xlink:href="#DejaVuSans-37"/>
       <use x="63.623047" xlink:href="#DejaVuSans-35"/>
      </g>
     </g>
    </g>
    <g id="xtick_5">
     <g id="line2d_5">
      <g>
       <use style="stroke:#000000;stroke-width:0.8;" x="247.434083" xlink:href="#m97bd48e763" y="180.518582"/>
      </g>
     </g>
     <g id="text_5">
      <!-- 100 -->
      <g transform="translate(235.981583 196.636707)scale(0.12 -0.12)">
       <defs>
        <path d="M 794 531 
L 1825 531 
L 1825 4091 
L 703 3866 
L 703 4441 
L 1819 4666 
L 2450 4666 
L 2450 531 
L 3481 531 
L 3481 0 
L 794 0 
L 794 531 
z
" id="DejaVuSans-31" transform="scale(0.015625)"/>
       </defs>
       <use xlink:href="#DejaVuSans-31"/>
       <use x="63.623047" xlink:href="#DejaVuSans-30"/>
       <use x="127.246094" xlink:href="#DejaVuSans-30"/>
      </g>
     </g>
    </g>
    <g id="xtick_6">
     <g id="line2d_6">
      <g>
       <use style="stroke:#000000;stroke-width:0.8;" x="290.939818" xlink:href="#m97bd48e763" y="180.518582"/>
      </g>
     </g>
     <g id="text_6">
      <!-- 125 -->
      <g transform="translate(279.487318 196.636707)scale(0.12 -0.12)">
       <use xlink:href="#DejaVuSans-31"/>
       <use x="63.623047" xlink:href="#DejaVuSans-32"/>
       <use x="127.246094" xlink:href="#DejaVuSans-35"/>
      </g>
     </g>
    </g>
    <g id="xtick_7">
     <g id="line2d_7">
      <g>
       <use style="stroke:#000000;stroke-width:0.8;" x="334.445552" xlink:href="#m97bd48e763" y="180.518582"/>
      </g>
     </g>
     <g id="text_7">
      <!-- 150 -->
      <g transform="translate(322.993052 196.636707)scale(0.12 -0.12)">
       <use xlink:href="#DejaVuSans-31"/>
       <use x="63.623047" xlink:href="#DejaVuSans-35"/>
       <use x="127.246094" xlink:href="#DejaVuSans-30"/>
      </g>
     </g>
    </g>
    <g id="xtick_8">
     <g id="line2d_8">
      <g>
       <use style="stroke:#000000;stroke-width:0.8;" x="377.951286" xlink:href="#m97bd48e763" y="180.518582"/>
      </g>
     </g>
     <g id="text_8">
      <!-- 175 -->
      <g transform="translate(366.498786 196.636707)scale(0.12 -0.12)">
       <use xlink:href="#DejaVuSans-31"/>
       <use x="63.623047" xlink:href="#DejaVuSans-37"/>
       <use x="127.246094" xlink:href="#DejaVuSans-35"/>
      </g>
     </g>
    </g>
    <g id="xtick_9">
     <g id="line2d_9">
      <g>
       <use style="stroke:#000000;stroke-width:0.8;" x="421.45702" xlink:href="#m97bd48e763" y="180.518582"/>
      </g>
     </g>
     <g id="text_9">
      <!-- 200 -->
      <g transform="translate(410.00452 196.636707)scale(0.12 -0.12)">
       <use xlink:href="#DejaVuSans-32"/>
       <use x="63.623047" xlink:href="#DejaVuSans-30"/>
       <use x="127.246094" xlink:href="#DejaVuSans-30"/>
      </g>
     </g>
    </g>
    <g id="text_10">
     <!-- Time (s) -->
     <g transform="translate(214.623041 213.770145)scale(0.14 -0.14)">
      <defs>
       <path d="M -19 4666 
L 3928 4666 
L 3928 4134 
L 2272 4134 
L 2272 0 
L 1638 0 
L 1638 4134 
L -19 4134 
L -19 4666 
z
" id="DejaVuSans-54" transform="scale(0.015625)"/>
       <path d="M 603 3500 
L 1178 3500 
L 1178 0 
L 603 0 
L 603 3500 
z
M 603 4863 
L 1178 4863 
L 1178 4134 
L 603 4134 
L 603 4863 
z
" id="DejaVuSans-69" transform="scale(0.015625)"/>
       <path d="M 3328 2828 
Q 3544 3216 3844 3400 
Q 4144 3584 4550 3584 
Q 5097 3584 5394 3201 
Q 5691 2819 5691 2113 
L 5691 0 
L 5113 0 
L 5113 2094 
Q 5113 2597 4934 2840 
Q 4756 3084 4391 3084 
Q 3944 3084 3684 2787 
Q 3425 2491 3425 1978 
L 3425 0 
L 2847 0 
L 2847 2094 
Q 2847 2600 2669 2842 
Q 2491 3084 2119 3084 
Q 1678 3084 1418 2786 
Q 1159 2488 1159 1978 
L 1159 0 
L 581 0 
L 581 3500 
L 1159 3500 
L 1159 2956 
Q 1356 3278 1631 3431 
Q 1906 3584 2284 3584 
Q 2666 3584 2933 3390 
Q 3200 3197 3328 2828 
z
" id="DejaVuSans-6d" transform="scale(0.015625)"/>
       <path d="M 3597 1894 
L 3597 1613 
L 953 1613 
Q 991 1019 1311 708 
Q 1631 397 2203 397 
Q 2534 397 2845 478 
Q 3156 559 3463 722 
L 3463 178 
Q 3153 47 2828 -22 
Q 2503 -91 2169 -91 
Q 1331 -91 842 396 
Q 353 884 353 1716 
Q 353 2575 817 3079 
Q 1281 3584 2069 3584 
Q 2775 3584 3186 3129 
Q 3597 2675 3597 1894 
z
M 3022 2063 
Q 3016 2534 2758 2815 
Q 2500 3097 2075 3097 
Q 1594 3097 1305 2825 
Q 1016 2553 972 2059 
L 3022 2063 
z
" id="DejaVuSans-65" transform="scale(0.015625)"/>
       <path id="DejaVuSans-20" transform="scale(0.015625)"/>
       <path d="M 1984 4856 
Q 1566 4138 1362 3434 
Q 1159 2731 1159 2009 
Q 1159 1288 1364 580 
Q 1569 -128 1984 -844 
L 1484 -844 
Q 1016 -109 783 600 
Q 550 1309 550 2009 
Q 550 2706 781 3412 
Q 1013 4119 1484 4856 
L 1984 4856 
z
" id="DejaVuSans-28" transform="scale(0.015625)"/>
       <path d="M 2834 3397 
L 2834 2853 
Q 2591 2978 2328 3040 
Q 2066 3103 1784 3103 
Q 1356 3103 1142 2972 
Q 928 2841 928 2578 
Q 928 2378 1081 2264 
Q 1234 2150 1697 2047 
L 1894 2003 
Q 2506 1872 2764 1633 
Q 3022 1394 3022 966 
Q 3022 478 2636 193 
Q 2250 -91 1575 -91 
Q 1294 -91 989 -36 
Q 684 19 347 128 
L 347 722 
Q 666 556 975 473 
Q 1284 391 1588 391 
Q 1994 391 2212 530 
Q 2431 669 2431 922 
Q 2431 1156 2273 1281 
Q 2116 1406 1581 1522 
L 1381 1569 
Q 847 1681 609 1914 
Q 372 2147 372 2553 
Q 372 3047 722 3315 
Q 1072 3584 1716 3584 
Q 2034 3584 2315 3537 
Q 2597 3491 2834 3397 
z
" id="DejaVuSans-73" transform="scale(0.015625)"/>
       <path d="M 513 4856 
L 1013 4856 
Q 1481 4119 1714 3412 
Q 1947 2706 1947 2009 
Q 1947 1309 1714 600 
Q 1481 -109 1013 -844 
L 513 -844 
Q 928 -128 1133 580 
Q 1338 1288 1338 2009 
Q 1338 2731 1133 3434 
Q 928 4138 513 4856 
z
" id="DejaVuSans-29" transform="scale(0.015625)"/>
      </defs>
      <use xlink:href="#DejaVuSans-54"/>
      <use x="57.958984" xlink:href="#DejaVuSans-69"/>
      <use x="85.742188" xlink:href="#DejaVuSans-6d"/>
      <use x="183.154297" xlink:href="#DejaVuSans-65"/>
      <use x="244.677734" xlink:href="#DejaVuSans-20"/>
      <use x="276.464844" xlink:href="#DejaVuSans-28"/>
      <use x="315.478516" xlink:href="#DejaVuSans-73"/>
      <use x="367.578125" xlink:href="#DejaVuSans-29"/>
     </g>
    </g>
   </g>
   <g id="matplotlib.axis_2">
    <g id="ytick_1">
     <g id="line2d_10">
      <defs>
       <path d="M 0 0 
L -3.5 0 
" id="md15b06211a" style="stroke:#000000;stroke-width:0.8;"/>
      </defs>
      <g>
       <use style="stroke:#000000;stroke-width:0.8;" x="64.71" xlink:href="#md15b06211a" y="161.816671"/>
      </g>
     </g>
     <g id="text_11">
      <!-- −600 -->
      <g transform="translate(24.749375 166.375734)scale(0.12 -0.12)">
       <defs>
        <path d="M 678 2272 
L 4684 2272 
L 4684 1741 
L 678 1741 
L 678 2272 
z
" id="DejaVuSans-2212" transform="scale(0.015625)"/>
        <path d="M 2113 2584 
Q 1688 2584 1439 2293 
Q 1191 2003 1191 1497 
Q 1191 994 1439 701 
Q 1688 409 2113 409 
Q 2538 409 2786 701 
Q 3034 994 3034 1497 
Q 3034 2003 2786 2293 
Q 2538 2584 2113 2584 
z
M 3366 4563 
L 3366 3988 
Q 3128 4100 2886 4159 
Q 2644 4219 2406 4219 
Q 1781 4219 1451 3797 
Q 1122 3375 1075 2522 
Q 1259 2794 1537 2939 
Q 1816 3084 2150 3084 
Q 2853 3084 3261 2657 
Q 3669 2231 3669 1497 
Q 3669 778 3244 343 
Q 2819 -91 2113 -91 
Q 1303 -91 875 529 
Q 447 1150 447 2328 
Q 447 3434 972 4092 
Q 1497 4750 2381 4750 
Q 2619 4750 2861 4703 
Q 3103 4656 3366 4563 
z
" id="DejaVuSans-36" transform="scale(0.015625)"/>
       </defs>
       <use xlink:href="#DejaVuSans-2212"/>
       <use x="83.789062" xlink:href="#DejaVuSans-36"/>
       <use x="147.412109" xlink:href="#DejaVuSans-30"/>
       <use x="211.035156" xlink:href="#DejaVuSans-30"/>
      </g>
     </g>
    </g>
    <g id="ytick_2">
     <g id="line2d_11">
      <g>
       <use style="stroke:#000000;stroke-width:0.8;" x="64.71" xlink:href="#md15b06211a" y="136.80707"/>
      </g>
     </g>
     <g id="text_12">
      <!-- −500 -->
      <g transform="translate(24.749375 141.366132)scale(0.12 -0.12)">
       <use xlink:href="#DejaVuSans-2212"/>
       <use x="83.789062" xlink:href="#DejaVuSans-35"/>
       <use x="147.412109" xlink:href="#DejaVuSans-30"/>
       <use x="211.035156" xlink:href="#DejaVuSans-30"/>
      </g>
     </g>
    </g>
    <g id="ytick_3">
     <g id="line2d_12">
      <g>
       <use style="stroke:#000000;stroke-width:0.8;" x="64.71" xlink:href="#md15b06211a" y="111.797468"/>
      </g>
     </g>
     <g id="text_13">
      <!-- −400 -->
      <g transform="translate(24.749375 116.356531)scale(0.12 -0.12)">
       <defs>
        <path d="M 2419 4116 
L 825 1625 
L 2419 1625 
L 2419 4116 
z
M 2253 4666 
L 3047 4666 
L 3047 1625 
L 3713 1625 
L 3713 1100 
L 3047 1100 
L 3047 0 
L 2419 0 
L 2419 1100 
L 313 1100 
L 313 1709 
L 2253 4666 
z
" id="DejaVuSans-34" transform="scale(0.015625)"/>
       </defs>
       <use xlink:href="#DejaVuSans-2212"/>
       <use x="83.789062" xlink:href="#DejaVuSans-34"/>
       <use x="147.412109" xlink:href="#DejaVuSans-30"/>
       <use x="211.035156" xlink:href="#DejaVuSans-30"/>
      </g>
     </g>
    </g>
    <g id="ytick_4">
     <g id="line2d_13">
      <g>
       <use style="stroke:#000000;stroke-width:0.8;" x="64.71" xlink:href="#md15b06211a" y="86.787867"/>
      </g>
     </g>
     <g id="text_14">
      <!-- −300 -->
      <g transform="translate(24.749375 91.346929)scale(0.12 -0.12)">
       <defs>
        <path d="M 2597 2516 
Q 3050 2419 3304 2112 
Q 3559 1806 3559 1356 
Q 3559 666 3084 287 
Q 2609 -91 1734 -91 
Q 1441 -91 1130 -33 
Q 819 25 488 141 
L 488 750 
Q 750 597 1062 519 
Q 1375 441 1716 441 
Q 2309 441 2620 675 
Q 2931 909 2931 1356 
Q 2931 1769 2642 2001 
Q 2353 2234 1838 2234 
L 1294 2234 
L 1294 2753 
L 1863 2753 
Q 2328 2753 2575 2939 
Q 2822 3125 2822 3475 
Q 2822 3834 2567 4026 
Q 2313 4219 1838 4219 
Q 1578 4219 1281 4162 
Q 984 4106 628 3988 
L 628 4550 
Q 988 4650 1302 4700 
Q 1616 4750 1894 4750 
Q 2613 4750 3031 4423 
Q 3450 4097 3450 3541 
Q 3450 3153 3228 2886 
Q 3006 2619 2597 2516 
z
" id="DejaVuSans-33" transform="scale(0.015625)"/>
       </defs>
       <use xlink:href="#DejaVuSans-2212"/>
       <use x="83.789062" xlink:href="#DejaVuSans-33"/>
       <use x="147.412109" xlink:href="#DejaVuSans-30"/>
       <use x="211.035156" xlink:href="#DejaVuSans-30"/>
      </g>
     </g>
    </g>
    <g id="ytick_5">
     <g id="line2d_14">
      <g>
       <use style="stroke:#000000;stroke-width:0.8;" x="64.71" xlink:href="#md15b06211a" y="61.778265"/>
      </g>
     </g>
     <g id="text_15">
      <!-- −200 -->
      <g transform="translate(24.749375 66.337328)scale(0.12 -0.12)">
       <use xlink:href="#DejaVuSans-2212"/>
       <use x="83.789062" xlink:href="#DejaVuSans-32"/>
       <use x="147.412109" xlink:href="#DejaVuSans-30"/>
       <use x="211.035156" xlink:href="#DejaVuSans-30"/>
      </g>
     </g>
    </g>
    <g id="ytick_6">
     <g id="line2d_15">
      <g>
       <use style="stroke:#000000;stroke-width:0.8;" x="64.71" xlink:href="#md15b06211a" y="36.768664"/>
      </g>
     </g>
     <g id="text_16">
      <!-- −100 -->
      <g transform="translate(24.749375 41.327726)scale(0.12 -0.12)">
       <use xlink:href="#DejaVuSans-2212"/>
       <use x="83.789062" xlink:href="#DejaVuSans-31"/>
       <use x="147.412109" xlink:href="#DejaVuSans-30"/>
       <use x="211.035156" xlink:href="#DejaVuSans-30"/>
      </g>
     </g>
    </g>
    <g id="ytick_7">
     <g id="line2d_16">
      <g>
       <use style="stroke:#000000;stroke-width:0.8;" x="64.71" xlink:href="#md15b06211a" y="11.759062"/>
      </g>
     </g>
     <g id="text_17">
      <!-- 0 -->
      <g transform="translate(50.075 16.318125)scale(0.12 -0.12)">
       <use xlink:href="#DejaVuSans-30"/>
      </g>
     </g>
    </g>
    <g id="text_18">
     <!-- Enhancement -->
     <g transform="translate(17.837813 143.286216)rotate(-90)scale(0.14 -0.14)">
      <defs>
       <path d="M 628 4666 
L 3578 4666 
L 3578 4134 
L 1259 4134 
L 1259 2753 
L 3481 2753 
L 3481 2222 
L 1259 2222 
L 1259 531 
L 3634 531 
L 3634 0 
L 628 0 
L 628 4666 
z
" id="DejaVuSans-45" transform="scale(0.015625)"/>
       <path d="M 3513 2113 
L 3513 0 
L 2938 0 
L 2938 2094 
Q 2938 2591 2744 2837 
Q 2550 3084 2163 3084 
Q 1697 3084 1428 2787 
Q 1159 2491 1159 1978 
L 1159 0 
L 581 0 
L 581 3500 
L 1159 3500 
L 1159 2956 
Q 1366 3272 1645 3428 
Q 1925 3584 2291 3584 
Q 2894 3584 3203 3211 
Q 3513 2838 3513 2113 
z
" id="DejaVuSans-6e" transform="scale(0.015625)"/>
       <path d="M 3513 2113 
L 3513 0 
L 2938 0 
L 2938 2094 
Q 2938 2591 2744 2837 
Q 2550 3084 2163 3084 
Q 1697 3084 1428 2787 
Q 1159 2491 1159 1978 
L 1159 0 
L 581 0 
L 581 4863 
L 1159 4863 
L 1159 2956 
Q 1366 3272 1645 3428 
Q 1925 3584 2291 3584 
Q 2894 3584 3203 3211 
Q 3513 2838 3513 2113 
z
" id="DejaVuSans-68" transform="scale(0.015625)"/>
       <path d="M 2194 1759 
Q 1497 1759 1228 1600 
Q 959 1441 959 1056 
Q 959 750 1161 570 
Q 1363 391 1709 391 
Q 2188 391 2477 730 
Q 2766 1069 2766 1631 
L 2766 1759 
L 2194 1759 
z
M 3341 1997 
L 3341 0 
L 2766 0 
L 2766 531 
Q 2569 213 2275 61 
Q 1981 -91 1556 -91 
Q 1019 -91 701 211 
Q 384 513 384 1019 
Q 384 1609 779 1909 
Q 1175 2209 1959 2209 
L 2766 2209 
L 2766 2266 
Q 2766 2663 2505 2880 
Q 2244 3097 1772 3097 
Q 1472 3097 1187 3025 
Q 903 2953 641 2809 
L 641 3341 
Q 956 3463 1253 3523 
Q 1550 3584 1831 3584 
Q 2591 3584 2966 3190 
Q 3341 2797 3341 1997 
z
" id="DejaVuSans-61" transform="scale(0.015625)"/>
       <path d="M 3122 3366 
L 3122 2828 
Q 2878 2963 2633 3030 
Q 2388 3097 2138 3097 
Q 1578 3097 1268 2742 
Q 959 2388 959 1747 
Q 959 1106 1268 751 
Q 1578 397 2138 397 
Q 2388 397 2633 464 
Q 2878 531 3122 666 
L 3122 134 
Q 2881 22 2623 -34 
Q 2366 -91 2075 -91 
Q 1284 -91 818 406 
Q 353 903 353 1747 
Q 353 2603 823 3093 
Q 1294 3584 2113 3584 
Q 2378 3584 2631 3529 
Q 2884 3475 3122 3366 
z
" id="DejaVuSans-63" transform="scale(0.015625)"/>
       <path d="M 1172 4494 
L 1172 3500 
L 2356 3500 
L 2356 3053 
L 1172 3053 
L 1172 1153 
Q 1172 725 1289 603 
Q 1406 481 1766 481 
L 2356 481 
L 2356 0 
L 1766 0 
Q 1100 0 847 248 
Q 594 497 594 1153 
L 594 3053 
L 172 3053 
L 172 3500 
L 594 3500 
L 594 4494 
L 1172 4494 
z
" id="DejaVuSans-74" transform="scale(0.015625)"/>
      </defs>
      <use xlink:href="#DejaVuSans-45"/>
      <use x="63.183594" xlink:href="#DejaVuSans-6e"/>
      <use x="126.5625" xlink:href="#DejaVuSans-68"/>
      <use x="189.941406" xlink:href="#DejaVuSans-61"/>
      <use x="251.220703" xlink:href="#DejaVuSans-6e"/>
      <use x="314.599609" xlink:href="#DejaVuSans-63"/>
      <use x="369.580078" xlink:href="#DejaVuSans-65"/>
      <use x="431.103516" xlink:href="#DejaVuSans-6d"/>
      <use x="528.515625" xlink:href="#DejaVuSans-65"/>
      <use x="590.039062" xlink:href="#DejaVuSans-6e"/>
      <use x="653.417969" xlink:href="#DejaVuSans-74"/>
     </g>
    </g>
   </g>
   <g id="LineCollection_1">
    <path clip-path="url(#p82a467d067)" d="M 73.411147 59.801269 
L 73.411147 67.080321 
" style="fill:none;stroke:#696969;stroke-width:1.5;"/>
    <path clip-path="url(#p82a467d067)" d="M 76.262339 59.048654 
L 76.262339 64.715242 
" style="fill:none;stroke:#696969;stroke-width:1.5;"/>
    <path clip-path="url(#p82a467d067)" d="M 79.11353 50.513882 
L 79.11353 53.51268 
" style="fill:none;stroke:#696969;stroke-width:1.5;"/>
    <path clip-path="url(#p82a467d067)" d="M 81.964722 18.241326 
L 81.964722 21.037605 
" style="fill:none;stroke:#696969;stroke-width:1.5;"/>
    <path clip-path="url(#p82a467d067)" d="M 84.815914 16.878724 
L 84.815914 18.672741 
" style="fill:none;stroke:#696969;stroke-width:1.5;"/>
    <path clip-path="url(#p82a467d067)" d="M 87.667106 23.933149 
L 87.667106 25.802179 
" style="fill:none;stroke:#696969;stroke-width:1.5;"/>
    <path clip-path="url(#p82a467d067)" d="M 90.518298 28.722508 
L 90.518298 30.56342 
" style="fill:none;stroke:#696969;stroke-width:1.5;"/>
    <path clip-path="url(#p82a467d067)" d="M 93.369489 35.7406 
L 93.369489 37.686818 
" style="fill:none;stroke:#696969;stroke-width:1.5;"/>
    <path clip-path="url(#p82a467d067)" d="M 96.220681 45.219799 
L 96.220681 47.288246 
" style="fill:none;stroke:#696969;stroke-width:1.5;"/>
    <path clip-path="url(#p82a467d067)" d="M 99.071873 57.892201 
L 99.071873 60.072214 
" style="fill:none;stroke:#696969;stroke-width:1.5;"/>
    <path clip-path="url(#p82a467d067)" d="M 101.923065 59.445245 
L 101.923065 61.577242 
" style="fill:none;stroke:#696969;stroke-width:1.5;"/>
    <path clip-path="url(#p82a467d067)" d="M 104.774257 69.126913 
L 104.774257 71.400372 
" style="fill:none;stroke:#696969;stroke-width:1.5;"/>
    <path clip-path="url(#p82a467d067)" d="M 107.625448 82.452569 
L 107.625448 84.563113 
" style="fill:none;stroke:#696969;stroke-width:1.5;"/>
    <path clip-path="url(#p82a467d067)" d="M 110.47664 90.813795 
L 110.47664 93.133542 
" style="fill:none;stroke:#696969;stroke-width:1.5;"/>
    <path clip-path="url(#p82a467d067)" d="M 113.327832 100.761691 
L 113.327832 103.355473 
" style="fill:none;stroke:#696969;stroke-width:1.5;"/>
    <path clip-path="url(#p82a467d067)" d="M 116.179024 110.332328 
L 116.179024 113.068705 
" style="fill:none;stroke:#696969;stroke-width:1.5;"/>
    <path clip-path="url(#p82a467d067)" d="M 119.030216 118.067604 
L 119.030216 120.33243 
" style="fill:none;stroke:#696969;stroke-width:1.5;"/>
    <path clip-path="url(#p82a467d067)" d="M 121.881407 135.079507 
L 121.881407 137.505921 
" style="fill:none;stroke:#696969;stroke-width:1.5;"/>
    <path clip-path="url(#p82a467d067)" d="M 124.732599 138.491252 
L 124.732599 141.224211 
" style="fill:none;stroke:#696969;stroke-width:1.5;"/>
    <path clip-path="url(#p82a467d067)" d="M 127.583791 146.434728 
L 127.583791 149.132513 
" style="fill:none;stroke:#696969;stroke-width:1.5;"/>
    <path clip-path="url(#p82a467d067)" d="M 130.434983 155.894939 
L 130.434983 158.533233 
" style="fill:none;stroke:#696969;stroke-width:1.5;"/>
    <path clip-path="url(#p82a467d067)" d="M 133.286174 158.468728 
L 133.286174 161.464407 
" style="fill:none;stroke:#696969;stroke-width:1.5;"/>
    <path clip-path="url(#p82a467d067)" d="M 136.137366 164.815415 
L 136.137366 167.868677 
" style="fill:none;stroke:#696969;stroke-width:1.5;"/>
    <path clip-path="url(#p82a467d067)" d="M 138.988558 168.050385 
L 138.988558 170.976197 
" style="fill:none;stroke:#696969;stroke-width:1.5;"/>
    <path clip-path="url(#p82a467d067)" d="M 141.83975 167.084994 
L 141.83975 169.940894 
" style="fill:none;stroke:#696969;stroke-width:1.5;"/>
    <path clip-path="url(#p82a467d067)" d="M 144.690942 169.454225 
L 144.690942 172.726208 
" style="fill:none;stroke:#696969;stroke-width:1.5;"/>
    <path clip-path="url(#p82a467d067)" d="M 147.542133 167.139172 
L 147.542133 170.442001 
" style="fill:none;stroke:#696969;stroke-width:1.5;"/>
    <path clip-path="url(#p82a467d067)" d="M 150.393325 165.869171 
L 150.393325 169.262757 
" style="fill:none;stroke:#696969;stroke-width:1.5;"/>
    <path clip-path="url(#p82a467d067)" d="M 153.244517 159.981903 
L 153.244517 163.428704 
" style="fill:none;stroke:#696969;stroke-width:1.5;"/>
    <path clip-path="url(#p82a467d067)" d="M 156.095709 161.001857 
L 156.095709 164.530464 
" style="fill:none;stroke:#696969;stroke-width:1.5;"/>
    <path clip-path="url(#p82a467d067)" d="M 158.946901 153.498896 
L 158.946901 157.026375 
" style="fill:none;stroke:#696969;stroke-width:1.5;"/>
    <path clip-path="url(#p82a467d067)" d="M 161.798092 158.874282 
L 161.798092 162.560813 
" style="fill:none;stroke:#696969;stroke-width:1.5;"/>
    <path clip-path="url(#p82a467d067)" d="M 164.649284 157.496303 
L 164.649284 160.863363 
" style="fill:none;stroke:#696969;stroke-width:1.5;"/>
    <path clip-path="url(#p82a467d067)" d="M 167.500476 159.787381 
L 167.500476 163.2896 
" style="fill:none;stroke:#696969;stroke-width:1.5;"/>
    <path clip-path="url(#p82a467d067)" d="M 170.351668 158.562259 
L 170.351668 162.047554 
" style="fill:none;stroke:#696969;stroke-width:1.5;"/>
    <path clip-path="url(#p82a467d067)" d="M 173.20286 155.625483 
L 173.20286 159.48814 
" style="fill:none;stroke:#696969;stroke-width:1.5;"/>
    <path clip-path="url(#p82a467d067)" d="M 176.054051 153.456884 
L 176.054051 157.538227 
" style="fill:none;stroke:#696969;stroke-width:1.5;"/>
    <path clip-path="url(#p82a467d067)" d="M 178.905243 147.89534 
L 178.905243 152.349665 
" style="fill:none;stroke:#696969;stroke-width:1.5;"/>
    <path clip-path="url(#p82a467d067)" d="M 181.756435 160.28661 
L 181.756435 166.580185 
" style="fill:none;stroke:#696969;stroke-width:1.5;"/>
    <path clip-path="url(#p82a467d067)" d="M 184.607627 145.004845 
L 184.607627 149.811404 
" style="fill:none;stroke:#696969;stroke-width:1.5;"/>
    <path clip-path="url(#p82a467d067)" d="M 187.458819 138.141434 
L 187.458819 142.950036 
" style="fill:none;stroke:#696969;stroke-width:1.5;"/>
    <path clip-path="url(#p82a467d067)" d="M 190.31001 135.487264 
L 190.31001 140.406814 
" style="fill:none;stroke:#696969;stroke-width:1.5;"/>
    <path clip-path="url(#p82a467d067)" d="M 193.161202 134.580924 
L 193.161202 139.473429 
" style="fill:none;stroke:#696969;stroke-width:1.5;"/>
    <path clip-path="url(#p82a467d067)" d="M 196.012394 127.117317 
L 196.012394 131.764819 
" style="fill:none;stroke:#696969;stroke-width:1.5;"/>
    <path clip-path="url(#p82a467d067)" d="M 198.863586 121.580632 
L 198.863586 126.049855 
" style="fill:none;stroke:#696969;stroke-width:1.5;"/>
    <path clip-path="url(#p82a467d067)" d="M 201.714778 121.875042 
L 201.714778 126.507802 
" style="fill:none;stroke:#696969;stroke-width:1.5;"/>
    <path clip-path="url(#p82a467d067)" d="M 204.565969 118.660629 
L 204.565969 122.971037 
" style="fill:none;stroke:#696969;stroke-width:1.5;"/>
    <path clip-path="url(#p82a467d067)" d="M 207.417161 112.9713 
L 207.417161 117.198904 
" style="fill:none;stroke:#696969;stroke-width:1.5;"/>
    <path clip-path="url(#p82a467d067)" d="M 210.268353 111.735689 
L 210.268353 116.016792 
" style="fill:none;stroke:#696969;stroke-width:1.5;"/>
    <path clip-path="url(#p82a467d067)" d="M 213.119545 107.355628 
L 213.119545 111.408911 
" style="fill:none;stroke:#696969;stroke-width:1.5;"/>
    <path clip-path="url(#p82a467d067)" d="M 215.970736 103.354894 
L 215.970736 107.568373 
" style="fill:none;stroke:#696969;stroke-width:1.5;"/>
    <path clip-path="url(#p82a467d067)" d="M 218.821928 99.928905 
L 218.821928 104.154462 
" style="fill:none;stroke:#696969;stroke-width:1.5;"/>
    <path clip-path="url(#p82a467d067)" d="M 221.67312 95.735259 
L 221.67312 99.485361 
" style="fill:none;stroke:#696969;stroke-width:1.5;"/>
    <path clip-path="url(#p82a467d067)" d="M 224.524312 91.158472 
L 224.524312 94.688411 
" style="fill:none;stroke:#696969;stroke-width:1.5;"/>
    <path clip-path="url(#p82a467d067)" d="M 227.375504 85.510274 
L 227.375504 88.74775 
" style="fill:none;stroke:#696969;stroke-width:1.5;"/>
    <path clip-path="url(#p82a467d067)" d="M 230.226695 85.547478 
L 230.226695 88.669205 
" style="fill:none;stroke:#696969;stroke-width:1.5;"/>
    <path clip-path="url(#p82a467d067)" d="M 233.077887 82.21932 
L 233.077887 85.410921 
" style="fill:none;stroke:#696969;stroke-width:1.5;"/>
    <path clip-path="url(#p82a467d067)" d="M 235.929079 77.951718 
L 235.929079 80.975933 
" style="fill:none;stroke:#696969;stroke-width:1.5;"/>
    <path clip-path="url(#p82a467d067)" d="M 238.780271 78.199897 
L 238.780271 81.158349 
" style="fill:none;stroke:#696969;stroke-width:1.5;"/>
    <path clip-path="url(#p82a467d067)" d="M 241.631463 74.201753 
L 241.631463 77.043431 
" style="fill:none;stroke:#696969;stroke-width:1.5;"/>
    <path clip-path="url(#p82a467d067)" d="M 244.482654 67.537747 
L 244.482654 70.003301 
" style="fill:none;stroke:#696969;stroke-width:1.5;"/>
    <path clip-path="url(#p82a467d067)" d="M 247.333846 68.233987 
L 247.333846 70.913973 
" style="fill:none;stroke:#696969;stroke-width:1.5;"/>
    <path clip-path="url(#p82a467d067)" d="M 250.185038 66.725343 
L 250.185038 69.122155 
" style="fill:none;stroke:#696969;stroke-width:1.5;"/>
    <path clip-path="url(#p82a467d067)" d="M 253.03623 62.549055 
L 253.03623 64.808442 
" style="fill:none;stroke:#696969;stroke-width:1.5;"/>
    <path clip-path="url(#p82a467d067)" d="M 255.887422 61.536825 
L 255.887422 63.805284 
" style="fill:none;stroke:#696969;stroke-width:1.5;"/>
    <path clip-path="url(#p82a467d067)" d="M 258.738613 59.958579 
L 258.738613 62.123798 
" style="fill:none;stroke:#696969;stroke-width:1.5;"/>
    <path clip-path="url(#p82a467d067)" d="M 261.589805 57.982322 
L 261.589805 60.157133 
" style="fill:none;stroke:#696969;stroke-width:1.5;"/>
    <path clip-path="url(#p82a467d067)" d="M 264.440997 55.136981 
L 264.440997 57.082312 
" style="fill:none;stroke:#696969;stroke-width:1.5;"/>
    <path clip-path="url(#p82a467d067)" d="M 267.292189 54.49725 
L 267.292189 56.436086 
" style="fill:none;stroke:#696969;stroke-width:1.5;"/>
    <path clip-path="url(#p82a467d067)" d="M 272.994572 49.765721 
L 272.994572 51.565571 
" style="fill:none;stroke:#696969;stroke-width:1.5;"/>
    <path clip-path="url(#p82a467d067)" d="M 275.845764 50.288074 
L 275.845764 52.109458 
" style="fill:none;stroke:#696969;stroke-width:1.5;"/>
    <path clip-path="url(#p82a467d067)" d="M 278.696956 47.229221 
L 278.696956 49.003843 
" style="fill:none;stroke:#696969;stroke-width:1.5;"/>
    <path clip-path="url(#p82a467d067)" d="M 281.548148 45.821607 
L 281.548148 47.443835 
" style="fill:none;stroke:#696969;stroke-width:1.5;"/>
    <path clip-path="url(#p82a467d067)" d="M 287.250531 42.740059 
L 287.250531 44.297005 
" style="fill:none;stroke:#696969;stroke-width:1.5;"/>
    <path clip-path="url(#p82a467d067)" d="M 290.101723 39.172164 
L 290.101723 40.731981 
" style="fill:none;stroke:#696969;stroke-width:1.5;"/>
    <path clip-path="url(#p82a467d067)" d="M 292.952915 38.347456 
L 292.952915 39.882393 
" style="fill:none;stroke:#696969;stroke-width:1.5;"/>
    <path clip-path="url(#p82a467d067)" d="M 298.655298 37.208342 
L 298.655298 38.676456 
" style="fill:none;stroke:#696969;stroke-width:1.5;"/>
    <path clip-path="url(#p82a467d067)" d="M 307.208874 34.124961 
L 307.208874 35.531851 
" style="fill:none;stroke:#696969;stroke-width:1.5;"/>
    <path clip-path="url(#p82a467d067)" d="M 310.060066 29.336967 
L 310.060066 30.597052 
" style="fill:none;stroke:#696969;stroke-width:1.5;"/>
    <path clip-path="url(#p82a467d067)" d="M 312.911257 32.215035 
L 312.911257 33.534893 
" style="fill:none;stroke:#696969;stroke-width:1.5;"/>
    <path clip-path="url(#p82a467d067)" d="M 318.613641 27.956927 
L 318.613641 29.065378 
" style="fill:none;stroke:#696969;stroke-width:1.5;"/>
    <path clip-path="url(#p82a467d067)" d="M 327.167216 26.32346 
L 327.167216 27.685824 
" style="fill:none;stroke:#696969;stroke-width:1.5;"/>
    <path clip-path="url(#p82a467d067)" d="M 330.018408 29.07537 
L 330.018408 30.56858 
" style="fill:none;stroke:#696969;stroke-width:1.5;"/>
    <path clip-path="url(#p82a467d067)" d="M 332.8696 25.712731 
L 332.8696 27.214313 
" style="fill:none;stroke:#696969;stroke-width:1.5;"/>
    <path clip-path="url(#p82a467d067)" d="M 335.720792 27.25177 
L 335.720792 28.858623 
" style="fill:none;stroke:#696969;stroke-width:1.5;"/>
   </g>
   <g id="line2d_17">
    <defs>
     <path d="M 0 2.5 
C 0.663008 2.5 1.29895 2.236584 1.767767 1.767767 
C 2.236584 1.29895 2.5 0.663008 2.5 0 
C 2.5 -0.663008 2.236584 -1.29895 1.767767 -1.767767 
C 1.29895 -2.236584 0.663008 -2.5 0 -2.5 
C -0.663008 -2.5 -1.29895 -2.236584 -1.767767 -1.767767 
C -2.236584 -1.29895 -2.5 -0.663008 -2.5 0 
C -2.5 0.663008 -2.236584 1.29895 -1.767767 1.767767 
C -1.29895 2.236584 -0.663008 2.5 0 2.5 
z
" id="mbcba5a7b5a" style="stroke:#696969;"/>
    </defs>
    <g clip-path="url(#p82a467d067)">
     <use style="fill:#696969;stroke:#696969;" x="73.411147" xlink:href="#mbcba5a7b5a" y="63.440795"/>
     <use style="fill:#696969;stroke:#696969;" x="76.262339" xlink:href="#mbcba5a7b5a" y="61.881948"/>
     <use style="fill:#696969;stroke:#696969;" x="79.11353" xlink:href="#mbcba5a7b5a" y="52.013281"/>
     <use style="fill:#696969;stroke:#696969;" x="81.964722" xlink:href="#mbcba5a7b5a" y="19.639466"/>
     <use style="fill:#696969;stroke:#696969;" x="84.815914" xlink:href="#mbcba5a7b5a" y="17.775733"/>
     <use style="fill:#696969;stroke:#696969;" x="87.667106" xlink:href="#mbcba5a7b5a" y="24.867664"/>
     <use style="fill:#696969;stroke:#696969;" x="90.518298" xlink:href="#mbcba5a7b5a" y="29.642964"/>
     <use style="fill:#696969;stroke:#696969;" x="93.369489" xlink:href="#mbcba5a7b5a" y="36.713709"/>
     <use style="fill:#696969;stroke:#696969;" x="96.220681" xlink:href="#mbcba5a7b5a" y="46.254022"/>
     <use style="fill:#696969;stroke:#696969;" x="99.071873" xlink:href="#mbcba5a7b5a" y="58.982208"/>
     <use style="fill:#696969;stroke:#696969;" x="101.923065" xlink:href="#mbcba5a7b5a" y="60.511244"/>
     <use style="fill:#696969;stroke:#696969;" x="104.774257" xlink:href="#mbcba5a7b5a" y="70.263643"/>
     <use style="fill:#696969;stroke:#696969;" x="107.625448" xlink:href="#mbcba5a7b5a" y="83.507841"/>
     <use style="fill:#696969;stroke:#696969;" x="110.47664" xlink:href="#mbcba5a7b5a" y="91.973668"/>
     <use style="fill:#696969;stroke:#696969;" x="113.327832" xlink:href="#mbcba5a7b5a" y="102.058582"/>
     <use style="fill:#696969;stroke:#696969;" x="116.179024" xlink:href="#mbcba5a7b5a" y="111.700517"/>
     <use style="fill:#696969;stroke:#696969;" x="119.030216" xlink:href="#mbcba5a7b5a" y="119.200017"/>
     <use style="fill:#696969;stroke:#696969;" x="121.881407" xlink:href="#mbcba5a7b5a" y="136.292714"/>
     <use style="fill:#696969;stroke:#696969;" x="124.732599" xlink:href="#mbcba5a7b5a" y="139.857731"/>
     <use style="fill:#696969;stroke:#696969;" x="127.583791" xlink:href="#mbcba5a7b5a" y="147.783621"/>
     <use style="fill:#696969;stroke:#696969;" x="130.434983" xlink:href="#mbcba5a7b5a" y="157.214086"/>
     <use style="fill:#696969;stroke:#696969;" x="133.286174" xlink:href="#mbcba5a7b5a" y="159.966568"/>
     <use style="fill:#696969;stroke:#696969;" x="136.137366" xlink:href="#mbcba5a7b5a" y="166.342046"/>
     <use style="fill:#696969;stroke:#696969;" x="138.988558" xlink:href="#mbcba5a7b5a" y="169.513291"/>
     <use style="fill:#696969;stroke:#696969;" x="141.83975" xlink:href="#mbcba5a7b5a" y="168.512944"/>
     <use style="fill:#696969;stroke:#696969;" x="144.690942" xlink:href="#mbcba5a7b5a" y="171.090217"/>
     <use style="fill:#696969;stroke:#696969;" x="147.542133" xlink:href="#mbcba5a7b5a" y="168.790586"/>
     <use style="fill:#696969;stroke:#696969;" x="150.393325" xlink:href="#mbcba5a7b5a" y="167.565964"/>
     <use style="fill:#696969;stroke:#696969;" x="153.244517" xlink:href="#mbcba5a7b5a" y="161.705303"/>
     <use style="fill:#696969;stroke:#696969;" x="156.095709" xlink:href="#mbcba5a7b5a" y="162.76616"/>
     <use style="fill:#696969;stroke:#696969;" x="158.946901" xlink:href="#mbcba5a7b5a" y="155.262635"/>
     <use style="fill:#696969;stroke:#696969;" x="161.798092" xlink:href="#mbcba5a7b5a" y="160.717547"/>
     <use style="fill:#696969;stroke:#696969;" x="164.649284" xlink:href="#mbcba5a7b5a" y="159.179833"/>
     <use style="fill:#696969;stroke:#696969;" x="167.500476" xlink:href="#mbcba5a7b5a" y="161.538491"/>
     <use style="fill:#696969;stroke:#696969;" x="170.351668" xlink:href="#mbcba5a7b5a" y="160.304907"/>
     <use style="fill:#696969;stroke:#696969;" x="173.20286" xlink:href="#mbcba5a7b5a" y="157.556811"/>
     <use style="fill:#696969;stroke:#696969;" x="176.054051" xlink:href="#mbcba5a7b5a" y="155.497556"/>
     <use style="fill:#696969;stroke:#696969;" x="178.905243" xlink:href="#mbcba5a7b5a" y="150.122503"/>
     <use style="fill:#696969;stroke:#696969;" x="181.756435" xlink:href="#mbcba5a7b5a" y="163.433398"/>
     <use style="fill:#696969;stroke:#696969;" x="184.607627" xlink:href="#mbcba5a7b5a" y="147.408125"/>
     <use style="fill:#696969;stroke:#696969;" x="187.458819" xlink:href="#mbcba5a7b5a" y="140.545735"/>
     <use style="fill:#696969;stroke:#696969;" x="190.31001" xlink:href="#mbcba5a7b5a" y="137.947039"/>
     <use style="fill:#696969;stroke:#696969;" x="193.161202" xlink:href="#mbcba5a7b5a" y="137.027177"/>
     <use style="fill:#696969;stroke:#696969;" x="196.012394" xlink:href="#mbcba5a7b5a" y="129.441068"/>
     <use style="fill:#696969;stroke:#696969;" x="198.863586" xlink:href="#mbcba5a7b5a" y="123.815244"/>
     <use style="fill:#696969;stroke:#696969;" x="201.714778" xlink:href="#mbcba5a7b5a" y="124.191422"/>
     <use style="fill:#696969;stroke:#696969;" x="204.565969" xlink:href="#mbcba5a7b5a" y="120.815833"/>
     <use style="fill:#696969;stroke:#696969;" x="207.417161" xlink:href="#mbcba5a7b5a" y="115.085102"/>
     <use style="fill:#696969;stroke:#696969;" x="210.268353" xlink:href="#mbcba5a7b5a" y="113.876241"/>
     <use style="fill:#696969;stroke:#696969;" x="213.119545" xlink:href="#mbcba5a7b5a" y="109.38227"/>
     <use style="fill:#696969;stroke:#696969;" x="215.970736" xlink:href="#mbcba5a7b5a" y="105.461634"/>
     <use style="fill:#696969;stroke:#696969;" x="218.821928" xlink:href="#mbcba5a7b5a" y="102.041684"/>
     <use style="fill:#696969;stroke:#696969;" x="221.67312" xlink:href="#mbcba5a7b5a" y="97.61031"/>
     <use style="fill:#696969;stroke:#696969;" x="224.524312" xlink:href="#mbcba5a7b5a" y="92.923442"/>
     <use style="fill:#696969;stroke:#696969;" x="227.375504" xlink:href="#mbcba5a7b5a" y="87.129012"/>
     <use style="fill:#696969;stroke:#696969;" x="230.226695" xlink:href="#mbcba5a7b5a" y="87.108341"/>
     <use style="fill:#696969;stroke:#696969;" x="233.077887" xlink:href="#mbcba5a7b5a" y="83.81512"/>
     <use style="fill:#696969;stroke:#696969;" x="235.929079" xlink:href="#mbcba5a7b5a" y="79.463826"/>
     <use style="fill:#696969;stroke:#696969;" x="238.780271" xlink:href="#mbcba5a7b5a" y="79.679123"/>
     <use style="fill:#696969;stroke:#696969;" x="241.631463" xlink:href="#mbcba5a7b5a" y="75.622592"/>
     <use style="fill:#696969;stroke:#696969;" x="244.482654" xlink:href="#mbcba5a7b5a" y="68.770524"/>
     <use style="fill:#696969;stroke:#696969;" x="247.333846" xlink:href="#mbcba5a7b5a" y="69.57398"/>
     <use style="fill:#696969;stroke:#696969;" x="250.185038" xlink:href="#mbcba5a7b5a" y="67.923749"/>
     <use style="fill:#696969;stroke:#696969;" x="253.03623" xlink:href="#mbcba5a7b5a" y="63.678748"/>
     <use style="fill:#696969;stroke:#696969;" x="255.887422" xlink:href="#mbcba5a7b5a" y="62.671055"/>
     <use style="fill:#696969;stroke:#696969;" x="258.738613" xlink:href="#mbcba5a7b5a" y="61.041188"/>
     <use style="fill:#696969;stroke:#696969;" x="261.589805" xlink:href="#mbcba5a7b5a" y="59.069727"/>
     <use style="fill:#696969;stroke:#696969;" x="264.440997" xlink:href="#mbcba5a7b5a" y="56.109646"/>
     <use style="fill:#696969;stroke:#696969;" x="267.292189" xlink:href="#mbcba5a7b5a" y="55.466668"/>
     <use style="fill:#696969;stroke:#696969;" x="272.994572" xlink:href="#mbcba5a7b5a" y="50.665646"/>
     <use style="fill:#696969;stroke:#696969;" x="275.845764" xlink:href="#mbcba5a7b5a" y="51.198766"/>
     <use style="fill:#696969;stroke:#696969;" x="278.696956" xlink:href="#mbcba5a7b5a" y="48.116532"/>
     <use style="fill:#696969;stroke:#696969;" x="281.548148" xlink:href="#mbcba5a7b5a" y="46.632721"/>
     <use style="fill:#696969;stroke:#696969;" x="287.250531" xlink:href="#mbcba5a7b5a" y="43.518532"/>
     <use style="fill:#696969;stroke:#696969;" x="290.101723" xlink:href="#mbcba5a7b5a" y="39.952072"/>
     <use style="fill:#696969;stroke:#696969;" x="292.952915" xlink:href="#mbcba5a7b5a" y="39.114924"/>
     <use style="fill:#696969;stroke:#696969;" x="298.655298" xlink:href="#mbcba5a7b5a" y="37.942399"/>
     <use style="fill:#696969;stroke:#696969;" x="307.208874" xlink:href="#mbcba5a7b5a" y="34.828406"/>
     <use style="fill:#696969;stroke:#696969;" x="310.060066" xlink:href="#mbcba5a7b5a" y="29.96701"/>
     <use style="fill:#696969;stroke:#696969;" x="312.911257" xlink:href="#mbcba5a7b5a" y="32.874964"/>
     <use style="fill:#696969;stroke:#696969;" x="318.613641" xlink:href="#mbcba5a7b5a" y="28.511152"/>
     <use style="fill:#696969;stroke:#696969;" x="327.167216" xlink:href="#mbcba5a7b5a" y="27.004642"/>
     <use style="fill:#696969;stroke:#696969;" x="330.018408" xlink:href="#mbcba5a7b5a" y="29.821975"/>
     <use style="fill:#696969;stroke:#696969;" x="332.8696" xlink:href="#mbcba5a7b5a" y="26.463522"/>
     <use style="fill:#696969;stroke:#696969;" x="335.720792" xlink:href="#mbcba5a7b5a" y="28.055196"/>
    </g>
   </g>
   <g id="line2d_18">
    <path clip-path="url(#p82a467d067)" d="M 215.970736 104.70276 
L 217.139725 103.092014 
L 218.308714 101.508237 
L 219.477702 99.950979 
L 220.646691 98.419795 
L 221.81568 96.914248 
L 222.984668 95.433909 
L 224.153657 93.978357 
L 225.322646 92.547175 
L 226.491634 91.139957 
L 227.660623 89.756301 
L 228.829611 88.395812 
L 229.9986 87.058102 
L 231.167589 85.742791 
L 232.336577 84.449503 
L 233.505566 83.177868 
L 234.674555 81.927526 
L 235.843543 80.698119 
L 237.012532 79.489296 
L 238.181521 78.300714 
L 239.350509 77.132032 
L 240.519498 75.982919 
L 241.688486 74.853046 
L 242.857475 73.74209 
L 244.026464 72.649737 
L 245.195452 71.575673 
L 246.364441 70.519593 
L 247.53343 69.481195 
L 248.702418 68.460184 
L 249.871407 67.456268 
L 251.040396 66.469162 
L 252.209384 65.498583 
L 253.378373 64.544255 
L 254.547361 63.605906 
L 255.71635 62.683268 
L 256.885339 61.776079 
L 258.054327 60.884079 
L 259.223316 60.007014 
L 260.392305 59.144635 
L 261.561293 58.296695 
L 262.730282 57.462952 
L 263.899271 56.64317 
L 265.068259 55.837113 
L 266.237248 55.044553 
L 267.406236 54.265263 
L 268.575225 53.499021 
L 269.744214 52.745609 
L 270.913202 52.004811 
L 272.082191 51.276417 
L 273.25118 50.560219 
L 274.420168 49.856013 
L 275.589157 49.163598 
L 276.758146 48.482776 
L 277.927134 47.813354 
L 279.096123 47.15514 
L 280.265111 46.507947 
L 281.4341 45.87159 
L 282.603089 45.245889 
L 283.772077 44.630663 
L 284.941066 44.025739 
L 286.110055 43.430943 
L 287.279043 42.846107 
L 288.448032 42.271062 
L 289.61702 41.705646 
L 290.786009 41.149697 
L 291.954998 40.603057 
L 293.123986 40.065569 
L 294.292975 39.537081 
L 295.461964 39.017442 
L 296.630952 38.506503 
L 297.799941 38.004119 
L 298.96893 37.510147 
L 300.137918 37.024446 
L 301.306907 36.546877 
L 302.475895 36.077304 
L 303.644884 35.615594 
L 304.813873 35.161614 
L 305.982861 34.715236 
L 307.15185 34.276331 
L 308.320839 33.844776 
L 309.489827 33.420446 
L 310.658816 33.003221 
L 311.827805 32.592982 
L 312.996793 32.189611 
L 314.165782 31.792995 
L 315.33477 31.403019 
L 316.503759 31.019573 
L 317.672748 30.642547 
L 318.841736 30.271834 
L 320.010725 29.907328 
L 321.179714 29.548925 
L 322.348702 29.196523 
L 323.517691 28.850022 
L 324.68668 28.509322 
L 325.855668 28.174327 
L 327.024657 27.844941 
L 328.193645 27.521069 
L 329.362634 27.202621 
L 330.531623 26.889505 
L 331.700611 26.581631 
L 332.8696 26.278912 
" style="fill:none;stroke:#22b573;stroke-linecap:square;stroke-width:2;"/>
   </g>
   <g id="line2d_19">
    <path clip-path="url(#p82a467d067)" d="M 90.518298 27.308996 
L 90.888953 28.526734 
L 91.259607 29.744472 
L 91.630262 30.96221 
L 92.000917 32.179948 
L 92.371572 33.397685 
L 92.742227 34.615423 
L 93.112882 35.833161 
L 93.483537 37.050899 
L 93.854192 38.268637 
L 94.224847 39.486375 
L 94.595502 40.704113 
L 94.966157 41.921851 
L 95.336812 43.139589 
L 95.707467 44.357327 
L 96.078122 45.575065 
L 96.448777 46.792802 
L 96.819431 48.01054 
L 97.190086 49.228278 
L 97.560741 50.446016 
L 97.931396 51.663754 
L 98.302051 52.881492 
L 98.672706 54.09923 
L 99.043361 55.316968 
L 99.414016 56.534706 
L 99.784671 57.752444 
L 100.155326 58.970182 
L 100.525981 60.187919 
L 100.896636 61.405657 
L 101.267291 62.623395 
L 101.637946 63.841133 
L 102.008601 65.058871 
L 102.379255 66.276609 
L 102.74991 67.494347 
L 103.120565 68.712085 
L 103.49122 69.929823 
L 103.861875 71.147561 
L 104.23253 72.365299 
L 104.603185 73.583036 
L 104.97384 74.800774 
L 105.344495 76.018512 
L 105.71515 77.23625 
L 106.085805 78.453988 
L 106.45646 79.671726 
L 106.827115 80.889464 
L 107.19777 82.107202 
L 107.568425 83.32494 
L 107.939079 84.542678 
L 108.309734 85.760416 
L 108.680389 86.978153 
L 109.051044 88.195891 
L 109.421699 89.413629 
L 109.792354 90.631367 
L 110.163009 91.849105 
L 110.533664 93.066843 
L 110.904319 94.284581 
L 111.274974 95.502319 
L 111.645629 96.720057 
L 112.016284 97.937795 
L 112.386939 99.155533 
L 112.757594 100.37327 
L 113.128249 101.591008 
L 113.498903 102.808746 
L 113.869558 104.026484 
L 114.240213 105.244222 
L 114.610868 106.46196 
L 114.981523 107.679698 
L 115.352178 108.897436 
L 115.722833 110.115174 
L 116.093488 111.332912 
L 116.464143 112.55065 
L 116.834798 113.768387 
L 117.205453 114.986125 
L 117.576108 116.203863 
L 117.946763 117.421601 
L 118.317418 118.639339 
L 118.688073 119.857077 
L 119.058727 121.074815 
L 119.429382 122.292553 
L 119.800037 123.510291 
L 120.170692 124.728029 
L 120.541347 125.945767 
L 120.912002 127.163504 
L 121.282657 128.381242 
L 121.653312 129.59898 
L 122.023967 130.816718 
L 122.394622 132.034456 
L 122.765277 133.252194 
L 123.135932 134.469932 
L 123.506587 135.68767 
L 123.877242 136.905408 
L 124.247896 138.123146 
L 124.618551 139.340884 
L 124.989206 140.558621 
L 125.359861 141.776359 
L 125.730516 142.994097 
L 126.101171 144.211835 
L 126.471826 145.429573 
L 126.842481 146.647311 
L 127.213136 147.865049 
L 127.583791 149.082787 
" style="fill:none;stroke:#22b573;stroke-linecap:square;stroke-width:2;"/>
   </g>
   <g id="line2d_20"/>
   <g id="patch_3">
    <path d="M 64.71 180.518582 
L 64.71 9.08635 
" style="fill:none;stroke:#000000;stroke-linecap:square;stroke-linejoin:miter;stroke-width:0.8;"/>
   </g>
   <g id="patch_4">
    <path d="M 421.45702 180.518582 
L 421.45702 9.08635 
" style="fill:none;stroke:#000000;stroke-linecap:square;stroke-linejoin:miter;stroke-width:0.8;"/>
   </g>
   <g id="patch_5">
    <path d="M 64.71 180.518582 
L 421.45702 180.518582 
" style="fill:none;stroke:#000000;stroke-linecap:square;stroke-linejoin:miter;stroke-width:0.8;"/>
   </g>
   <g id="patch_6">
    <path d="M 64.71 9.08635 
L 421.45702 9.08635 
" style="fill:none;stroke:#000000;stroke-linecap:square;stroke-linejoin:miter;stroke-width:0.8;"/>
   </g>
   <g id="legend_1">
    <g id="patch_7">
     <path d="M 363.635145 31.764475 
L 414.45702 31.764475 
Q 416.45702 31.764475 416.45702 29.764475 
L 416.45702 16.08635 
Q 416.45702 14.08635 414.45702 14.08635 
L 363.635145 14.08635 
Q 361.635145 14.08635 361.635145 16.08635 
L 361.635145 29.764475 
Q 361.635145 31.764475 363.635145 31.764475 
z
" style="fill:#ffffff;opacity:0.8;stroke:#cccccc;stroke-linejoin:miter;"/>
    </g>
    <g id="line2d_21"/>
    <g id="line2d_22">
     <g>
      <use style="fill:#696969;stroke:#696969;" x="375.635145" xlink:href="#mbcba5a7b5a" y="22.184787"/>
     </g>
    </g>
    <g id="text_19">
     <!-- TCE -->
     <g transform="translate(393.635145 25.684787)scale(0.1 -0.1)">
      <defs>
       <path d="M 4122 4306 
L 4122 3641 
Q 3803 3938 3442 4084 
Q 3081 4231 2675 4231 
Q 1875 4231 1450 3742 
Q 1025 3253 1025 2328 
Q 1025 1406 1450 917 
Q 1875 428 2675 428 
Q 3081 428 3442 575 
Q 3803 722 4122 1019 
L 4122 359 
Q 3791 134 3420 21 
Q 3050 -91 2638 -91 
Q 1578 -91 968 557 
Q 359 1206 359 2328 
Q 359 3453 968 4101 
Q 1578 4750 2638 4750 
Q 3056 4750 3426 4639 
Q 3797 4528 4122 4306 
z
" id="DejaVuSans-43" transform="scale(0.015625)"/>
      </defs>
      <use xlink:href="#DejaVuSans-54"/>
      <use x="55.208984" xlink:href="#DejaVuSans-43"/>
      <use x="125.033203" xlink:href="#DejaVuSans-45"/>
     </g>
    </g>
   </g>
  </g>
 </g>
 <defs>
  <clipPath id="p82a467d067">
   <rect height="171.432232" width="356.74702" x="64.71" y="9.08635"/>
  </clipPath>
 </defs>
</svg>
